<?xml version="1.0" encoding="UTF-8" standalone="no"?>
<!-- Created with Inkscape (http://www.inkscape.org/) -->

<svg
   xmlns:dc="http://purl.org/dc/elements/1.1/"
   xmlns:cc="http://creativecommons.org/ns#"
   xmlns:rdf="http://www.w3.org/1999/02/22-rdf-syntax-ns#"
   xmlns:svg="http://www.w3.org/2000/svg"
   xmlns="http://www.w3.org/2000/svg"
   xmlns:sodipodi="http://sodipodi.sourceforge.net/DTD/sodipodi-0.dtd"
   xmlns:inkscape="http://www.inkscape.org/namespaces/inkscape"
   version="1.1"
   id="svg6132"
   xml:space="preserve"
   width="651.3233"
   height="437.23584"
   viewBox="0 0 651.3233 437.23584"
   sodipodi:docname="component_ratios.svg"
   inkscape:version="0.92.5 (2060ec1f9f, 2020-04-08)"><metadata
     id="metadata6138"><rdf:RDF><cc:Work
         rdf:about=""><dc:format>image/svg+xml</dc:format><dc:type
           rdf:resource="http://purl.org/dc/dcmitype/StillImage" /><dc:title></dc:title></cc:Work></rdf:RDF></metadata><defs
     id="defs6136"><clipPath
       clipPathUnits="userSpaceOnUse"
       id="clipPath6152"><path
         d="M 59.153125,49.16875 H 434.43312 v 265.48 H 59.153125 Z"
         id="path6150"
         inkscape:connector-curvature="0" /></clipPath><clipPath
       clipPathUnits="userSpaceOnUse"
       id="clipPath6162"><path
         d="M 59.153125,49.16875 H 434.43312 v 265.48 H 59.153125 Z"
         id="path6160"
         inkscape:connector-curvature="0" /></clipPath><clipPath
       clipPathUnits="userSpaceOnUse"
       id="clipPath6172"><path
         d="M 59.153125,49.16875 H 434.43312 v 265.48 H 59.153125 Z"
         id="path6170"
         inkscape:connector-curvature="0" /></clipPath><clipPath
       clipPathUnits="userSpaceOnUse"
       id="clipPath6276"><path
         d="M 59.153125,49.16875 H 434.43312 v 265.48 H 59.153125 Z"
         id="path6274"
         inkscape:connector-curvature="0" /></clipPath><clipPath
       clipPathUnits="userSpaceOnUse"
       id="clipPath6286"><path
         d="M 59.153125,49.16875 H 434.43312 v 265.48 H 59.153125 Z"
         id="path6284"
         inkscape:connector-curvature="0" /></clipPath><clipPath
       clipPathUnits="userSpaceOnUse"
       id="clipPath6296"><path
         d="M 59.153125,49.16875 H 434.43312 v 265.48 H 59.153125 Z"
         id="path6294"
         inkscape:connector-curvature="0" /></clipPath><clipPath
       clipPathUnits="userSpaceOnUse"
       id="clipPath6342"><path
         d="M 59.153125,49.16875 H 434.43312 v 265.48 H 59.153125 Z"
         id="path6340"
         inkscape:connector-curvature="0" /></clipPath><clipPath
       clipPathUnits="userSpaceOnUse"
       id="clipPath6400"><path
         d="M 59.153125,49.16875 H 434.43312 v 265.48 H 59.153125 Z"
         id="path6398"
         inkscape:connector-curvature="0" /></clipPath></defs><sodipodi:namedview
     pagecolor="#ffffff"
     bordercolor="#666666"
     borderopacity="1"
     objecttolerance="10"
     gridtolerance="10"
     guidetolerance="10"
     inkscape:pageopacity="0"
     inkscape:pageshadow="2"
     inkscape:window-width="1848"
     inkscape:window-height="1016"
     id="namedview6134"
     showgrid="false"
     showguides="true"
     inkscape:guide-bbox="true"
     inkscape:zoom="1.5242475"
     inkscape:cx="344.85803"
     inkscape:cy="174.58457"
     inkscape:window-x="72"
     inkscape:window-y="27"
     inkscape:window-maximized="1"
     inkscape:current-layer="g6140"><sodipodi:guide
       position="543.23332,141.14324"
       orientation="1,0"
       id="guide7027"
       inkscape:locked="false" /></sodipodi:namedview><g
     id="g6140"
     inkscape:groupmode="layer"
     inkscape:label="thresholds"
     transform="matrix(1.3333333,0,0,-1.3333333,0,437.23583)"><path
       d="M 0,0 H 488.4925 V 327.92687 H 0 Z"
       style="fill:#ffffff;fill-opacity:1;fill-rule:nonzero;stroke:none"
       id="path6142"
       inkscape:connector-curvature="0" /><path
       d="M 59.153125,49.16875 H 434.43312 v 265.48 H 59.153125 Z"
       style="fill:#ffffff;fill-opacity:1;fill-rule:nonzero;stroke:none"
       id="path6144"
       inkscape:connector-curvature="0" /><g
       id="g6146"><g
         id="g6148"
         clip-path="url(#clipPath6152)"><path
           d="m 76.211307,137.81001 v 145.54116 l 18.953535,28.94234 18.953538,-4.74032 18.95353,0.41426 18.95354,4.24409 18.95353,0.63554 18.95354,-0.26164 18.95353,0.56867 18.95354,-0.71883 18.95353,0.6581 18.95354,-0.24532 18.95354,0.0157 18.95353,0.0367 18.95354,-1.11182 18.95353,0.17775 18.95354,-0.21587 18.95353,-0.0228 18.95354,0.16272 18.95353,0.027 v -6.38621 0 l -18.95353,-1.10322 -18.95354,-0.85061 -18.95353,-0.63186 -18.95354,-1.1893 -18.95353,-0.32792 -18.95354,-1.6953 -18.95353,-1.35194 -18.95354,-0.85314 -18.95354,-3.41178 -18.95353,-0.85218 -18.95354,-1.01381 -18.95353,-4.05827 -18.95354,-2.89115 -18.95353,-5.59439 -18.95354,-11.47233 -18.95353,-22.94798 -18.953538,-30.2264 -18.953535,-77.24966 z"
           style="fill:#1f77b4;fill-opacity:0.25;fill-rule:nonzero;stroke:none"
           id="path6154"
           inkscape:connector-curvature="0" /></g></g><g
       id="g6156"><g
         id="g6158"
         clip-path="url(#clipPath6162)"><path
           d="m 76.211307,86.745265 v 90.506485 l 18.953535,-23.8383 18.953538,11.00612 18.95353,27.06456 18.95354,17.52544 18.95353,13.97255 18.95354,9.29995 18.95353,14.01554 18.95354,8.97737 18.95353,8.08165 18.95354,2.8703 18.95354,2.29037 18.95353,-0.63533 18.95354,2.71629 18.95353,1.58907 18.95354,-0.0486 18.95353,-0.39122 18.95354,3.68249 18.95353,0.84381 v -21.61743 0 l -18.95353,-2.02524 -18.95354,-2.52245 -18.95353,-4.4515 -18.95354,-6.06616 -18.95353,-4.68132 -18.95354,-4.84551 -18.95353,-4.50181 -18.95354,-23.13134 -18.95354,-12.34412 -18.95353,-18.06518 -18.95354,-8.83929 -18.95353,-20.42101 -18.95354,-20.33267 -18.95353,-3.72612 -18.95354,-20.703677 -18.95353,-9.748672 -18.953538,-5.276653 -18.953535,3.771617 z"
           style="fill:#ff7f0e;fill-opacity:0.25;fill-rule:nonzero;stroke:none"
           id="path6164"
           inkscape:connector-curvature="0" /></g></g><g
       id="g6166"><g
         id="g6168"
         clip-path="url(#clipPath6172)"><path
           d="m 76.211307,84.521858 v 90.705622 l 18.953535,-29.35329 18.953538,2.13422 18.95353,30.8934 18.95354,12.97804 18.95353,11.85623 18.95354,10.46487 18.95353,6.99884 18.95354,12.72618 18.95353,12.18183 18.95354,5.87024 18.95354,4.79973 18.95353,0.89756 18.95354,1.42822 18.95353,2.44536 18.95354,-0.4645 18.95353,0.20622 18.95354,1.87368 18.95353,1.43444 v -25.09478 0 l -18.95353,-1.50913 -18.95354,-2.16578 -18.95353,-4.07269 -18.95354,-6.72983 -18.95353,-2.59117 -18.95354,-4.05643 -18.95353,-4.43926 -18.95354,-22.35968 -18.95354,-20.34953 -18.95353,-16.56081 -18.95354,-16.29963 -18.95353,-13.93616 -18.95354,-15.32461 -18.95353,0.3875 -18.95354,-15.906193 -18.95353,-5.91982 -18.953538,-5.653193 z"
           style="fill:#2ca02c;fill-opacity:0.25;fill-rule:nonzero;stroke:none"
           id="path6174"
           inkscape:connector-curvature="0" /></g></g><g
       id="g6176"><path
         d="m 133.07191,49.16875 v -3.5"
         style="fill:#000000;fill-opacity:1;fill-rule:nonzero;stroke:#000000;stroke-width:0.80000001;stroke-linecap:butt;stroke-linejoin:round;stroke-miterlimit:10;stroke-dasharray:none;stroke-opacity:1"
         id="path6178"
         inkscape:connector-curvature="0" /><g
         id="g6180"
         transform="translate(122.88441,30.0125)"><text
           transform="scale(1,-1)"
           style="font-variant:normal;font-weight:normal;font-size:16px;font-family:'DejaVu Sans';-inkscape-font-specification:DejaVuSans;writing-mode:lr-tb;fill:#000000;fill-opacity:1;fill-rule:nonzero;stroke:none"
           id="text6184"><tspan
             x="0 10.176"
             y="0"
             sodipodi:role="line"
             id="tspan6182">20</tspan></text>
</g><path
         d="m 208.88605,49.16875 v -3.5"
         style="fill:#000000;fill-opacity:1;fill-rule:nonzero;stroke:#000000;stroke-width:0.80000001;stroke-linecap:butt;stroke-linejoin:round;stroke-miterlimit:10;stroke-dasharray:none;stroke-opacity:1"
         id="path6186"
         inkscape:connector-curvature="0" /><g
         id="g6188"
         transform="translate(198.69855,30.0125)"><text
           transform="scale(1,-1)"
           style="font-variant:normal;font-weight:normal;font-size:16px;font-family:'DejaVu Sans';-inkscape-font-specification:DejaVuSans;writing-mode:lr-tb;fill:#000000;fill-opacity:1;fill-rule:nonzero;stroke:none"
           id="text6192"><tspan
             x="0 10.176"
             y="0"
             sodipodi:role="line"
             id="tspan6190">40</tspan></text>
</g><path
         d="m 284.7002,49.16875 v -3.5"
         style="fill:#000000;fill-opacity:1;fill-rule:nonzero;stroke:#000000;stroke-width:0.80000001;stroke-linecap:butt;stroke-linejoin:round;stroke-miterlimit:10;stroke-dasharray:none;stroke-opacity:1"
         id="path6194"
         inkscape:connector-curvature="0" /><g
         id="g6196"
         transform="translate(274.5127,30.0125)"><text
           transform="scale(1,-1)"
           style="font-variant:normal;font-weight:normal;font-size:16px;font-family:'DejaVu Sans';-inkscape-font-specification:DejaVuSans;writing-mode:lr-tb;fill:#000000;fill-opacity:1;fill-rule:nonzero;stroke:none"
           id="text6200"><tspan
             x="0 10.176"
             y="0"
             sodipodi:role="line"
             id="tspan6198">60</tspan></text>
</g><path
         d="m 360.51434,49.16875 v -3.5"
         style="fill:#000000;fill-opacity:1;fill-rule:nonzero;stroke:#000000;stroke-width:0.80000001;stroke-linecap:butt;stroke-linejoin:round;stroke-miterlimit:10;stroke-dasharray:none;stroke-opacity:1"
         id="path6202"
         inkscape:connector-curvature="0" /><g
         id="g6204"
         transform="translate(350.32684,30.0125)"><text
           transform="scale(1,-1)"
           style="font-variant:normal;font-weight:normal;font-size:16px;font-family:'DejaVu Sans';-inkscape-font-specification:DejaVuSans;writing-mode:lr-tb;fill:#000000;fill-opacity:1;fill-rule:nonzero;stroke:none"
           id="text6208"><tspan
             x="0 10.176"
             y="0"
             sodipodi:role="line"
             id="tspan6206">80</tspan></text>
</g><g
         id="g6210"
         transform="translate(209.68375,10.528125)"><text
           transform="scale(1,-1)"
           style="font-variant:normal;font-weight:normal;font-size:16px;font-family:'DejaVu Sans';-inkscape-font-specification:DejaVuSans;writing-mode:lr-tb;fill:#000000;fill-opacity:1;fill-rule:nonzero;stroke:none"
           id="text6214"><tspan
             x="0 13.408 18.496 29.440001 39.599998 49.439999 59.584 65.856003"
             y="0"
             sodipodi:role="line"
             id="tspan6212"># Agents</tspan></text>
</g><path
         d="m 59.153125,49.16875 h -3.5"
         style="fill:#000000;fill-opacity:1;fill-rule:nonzero;stroke:#000000;stroke-width:0.80000001;stroke-linecap:butt;stroke-linejoin:round;stroke-miterlimit:10;stroke-dasharray:none;stroke-opacity:1"
         id="path6216"
         inkscape:connector-curvature="0" /><g
         id="g6218"
         transform="translate(26.684375,43.090625)"><text
           transform="scale(1,-1)"
           style="font-variant:normal;font-weight:normal;font-size:16px;font-family:'DejaVu Sans';-inkscape-font-specification:DejaVuSans;writing-mode:lr-tb;fill:#000000;fill-opacity:1;fill-rule:nonzero;stroke:none"
           id="text6222"><tspan
             x="0 10.176 15.264"
             y="0"
             sodipodi:role="line"
             id="tspan6220">0.0</tspan></text>
</g><path
         d="m 59.153125,102.26475 h -3.5"
         style="fill:#000000;fill-opacity:1;fill-rule:nonzero;stroke:#000000;stroke-width:0.80000001;stroke-linecap:butt;stroke-linejoin:round;stroke-miterlimit:10;stroke-dasharray:none;stroke-opacity:1"
         id="path6224"
         inkscape:connector-curvature="0" /><g
         id="g6226"
         transform="translate(26.684375,96.186625)"><text
           transform="scale(1,-1)"
           style="font-variant:normal;font-weight:normal;font-size:16px;font-family:'DejaVu Sans';-inkscape-font-specification:DejaVuSans;writing-mode:lr-tb;fill:#000000;fill-opacity:1;fill-rule:nonzero;stroke:none"
           id="text6230"><tspan
             x="0 10.176 15.264"
             y="0"
             sodipodi:role="line"
             id="tspan6228">0.2</tspan></text>
</g><path
         d="m 59.153125,155.36075 h -3.5"
         style="fill:#000000;fill-opacity:1;fill-rule:nonzero;stroke:#000000;stroke-width:0.80000001;stroke-linecap:butt;stroke-linejoin:round;stroke-miterlimit:10;stroke-dasharray:none;stroke-opacity:1"
         id="path6232"
         inkscape:connector-curvature="0" /><g
         id="g6234"
         transform="translate(26.684375,149.28262)"><text
           transform="scale(1,-1)"
           style="font-variant:normal;font-weight:normal;font-size:16px;font-family:'DejaVu Sans';-inkscape-font-specification:DejaVuSans;writing-mode:lr-tb;fill:#000000;fill-opacity:1;fill-rule:nonzero;stroke:none"
           id="text6238"><tspan
             x="0 10.176 15.264"
             y="0"
             sodipodi:role="line"
             id="tspan6236">0.4</tspan></text>
</g><path
         d="m 59.153125,208.45675 h -3.5"
         style="fill:#000000;fill-opacity:1;fill-rule:nonzero;stroke:#000000;stroke-width:0.80000001;stroke-linecap:butt;stroke-linejoin:round;stroke-miterlimit:10;stroke-dasharray:none;stroke-opacity:1"
         id="path6240"
         inkscape:connector-curvature="0" /><g
         id="g6242"
         transform="translate(26.684375,202.37862)"><text
           transform="scale(1,-1)"
           style="font-variant:normal;font-weight:normal;font-size:16px;font-family:'DejaVu Sans';-inkscape-font-specification:DejaVuSans;writing-mode:lr-tb;fill:#000000;fill-opacity:1;fill-rule:nonzero;stroke:none"
           id="text6246"><tspan
             x="0 10.176 15.264"
             y="0"
             sodipodi:role="line"
             id="tspan6244">0.6</tspan></text>
</g><path
         d="m 59.153125,261.55275 h -3.5"
         style="fill:#000000;fill-opacity:1;fill-rule:nonzero;stroke:#000000;stroke-width:0.80000001;stroke-linecap:butt;stroke-linejoin:round;stroke-miterlimit:10;stroke-dasharray:none;stroke-opacity:1"
         id="path6248"
         inkscape:connector-curvature="0" /><g
         id="g6250"
         transform="translate(26.684375,255.47462)"><text
           transform="scale(1,-1)"
           style="font-variant:normal;font-weight:normal;font-size:16px;font-family:'DejaVu Sans';-inkscape-font-specification:DejaVuSans;writing-mode:lr-tb;fill:#000000;fill-opacity:1;fill-rule:nonzero;stroke:none"
           id="text6254"><tspan
             x="0 10.176 15.264"
             y="0"
             sodipodi:role="line"
             id="tspan6252">0.8</tspan></text>
</g><path
         d="m 59.153125,314.64875 h -3.5"
         style="fill:#000000;fill-opacity:1;fill-rule:nonzero;stroke:#000000;stroke-width:0.80000001;stroke-linecap:butt;stroke-linejoin:round;stroke-miterlimit:10;stroke-dasharray:none;stroke-opacity:1"
         id="path6256"
         inkscape:connector-curvature="0" /><g
         id="g6258"
         transform="translate(26.684375,308.57062)"><text
           transform="scale(1,-1)"
           style="font-variant:normal;font-weight:normal;font-size:16px;font-family:'DejaVu Sans';-inkscape-font-specification:DejaVuSans;writing-mode:lr-tb;fill:#000000;fill-opacity:1;fill-rule:nonzero;stroke:none"
           id="text6262"><tspan
             x="0 10.176 15.264"
             y="0"
             sodipodi:role="line"
             id="tspan6260">1.0</tspan></text>
</g><g
         id="g6264"
         transform="rotate(90,-36.952031,56.308281)"><text
           transform="scale(1,-1)"
           style="font-variant:normal;font-weight:normal;font-size:16px;font-family:'DejaVu Sans';-inkscape-font-specification:DejaVuSans;writing-mode:lr-tb;fill:#000000;fill-opacity:1;fill-rule:nonzero;stroke:none"
           id="text6268"><tspan
             x="0 13.808 23.615999 33.088001 38.175999 49.344002 59.136002 74.720001 84.879997 94.671997 104.816 114.656 124.8 131.07201 136.16 146.93625 156.74425 163.01625 167.46425"
             y="0"
             sodipodi:role="line"
             id="tspan6266">Max Component Ratio</tspan></text>
</g></g><g
       id="g6270"><g
         id="g6272"
         clip-path="url(#clipPath6276)"><path
           d="m 76.211307,210.58059 18.953535,53.096 18.953538,12.74304 18.95353,11.68112 18.95354,7.85821 18.95353,3.11496 18.95354,1.31476 18.95353,2.31347 18.95354,0.14749 18.95353,0.75514 18.95354,1.58323 18.95354,0.43442 18.95353,0.69433 18.95354,0.29174 18.95353,0.25284 18.95354,0.48671 18.95353,0.30452 18.95354,0.50667 18.95353,0.56511"
           style="fill:none;stroke:#1f77b4;stroke-width:1.5;stroke-linecap:square;stroke-linejoin:round;stroke-miterlimit:10;stroke-dasharray:none;stroke-opacity:1"
           id="path6278"
           inkscape:connector-curvature="0" /></g></g><g
       id="g6280"><g
         id="g6282"
         clip-path="url(#clipPath6286)"><path
           d="m 76.211307,131.99851 18.953535,-13.80496 18.953538,8.14139 18.95353,18.40661 18.95354,19.11456 18.95353,8.84933 18.95354,14.81632 18.95353,17.21827 18.95354,8.90833 18.95353,13.07341 18.95354,7.60721 18.95354,12.71086 18.95353,1.93324 18.95354,3.7809 18.95353,3.1352 18.95354,3.00877 18.95353,2.03014 18.95354,3.10247 18.95353,1.43453"
           style="fill:none;stroke:#ff7f0e;stroke-width:1.5;stroke-linecap:square;stroke-linejoin:round;stroke-miterlimit:10;stroke-dasharray:none;stroke-opacity:1"
           id="path6288"
           inkscape:connector-curvature="0" /></g></g><g
       id="g6290"><g
         id="g6292"
         clip-path="url(#clipPath6296)"><path
           d="m 76.211307,129.87467 18.953535,-15.9288 18.953538,3.89371 18.95353,18.40661 18.95354,14.44211 18.95353,5.73437 18.95354,12.89474 18.95353,10.4675 18.95354,14.51291 18.95353,14.37131 18.95354,13.10989 18.95354,13.5797 18.95353,2.66842 18.95354,2.74232 18.95353,2.51827 18.95354,3.13266 18.95353,2.13946 18.95354,2.01973 18.95353,1.47178"
           style="fill:none;stroke:#2ca02c;stroke-width:1.5;stroke-linecap:square;stroke-linejoin:round;stroke-miterlimit:10;stroke-dasharray:none;stroke-opacity:1"
           id="path6298"
           inkscape:connector-curvature="0" /></g></g><g
       id="g6300"><path
         d="m 59.153125,49.16875 v 265.48"
         style="fill:none;stroke:#000000;stroke-width:0.80000001;stroke-linecap:square;stroke-linejoin:miter;stroke-miterlimit:10;stroke-dasharray:none;stroke-opacity:1"
         id="path6302"
         inkscape:connector-curvature="0" /><path
         d="m 434.43312,49.16875 v 265.48"
         style="fill:none;stroke:#000000;stroke-width:0.80000001;stroke-linecap:square;stroke-linejoin:miter;stroke-miterlimit:10;stroke-dasharray:none;stroke-opacity:1"
         id="path6304"
         inkscape:connector-curvature="0" /><path
         d="M 59.153125,49.16875 H 434.43312"
         style="fill:none;stroke:#000000;stroke-width:0.80000001;stroke-linecap:square;stroke-linejoin:miter;stroke-miterlimit:10;stroke-dasharray:none;stroke-opacity:1"
         id="path6306"
         inkscape:connector-curvature="0" /><path
         d="M 59.153125,314.64875 H 434.43312"
         style="fill:none;stroke:#000000;stroke-width:0.80000001;stroke-linecap:square;stroke-linejoin:miter;stroke-miterlimit:10;stroke-dasharray:none;stroke-opacity:1"
         id="path6308"
         inkscape:connector-curvature="0" /><g
         id="g6993"
         transform="matrix(0.70639763,0,0,0.70639763,131.74518,10.487503)"><path
           inkscape:connector-curvature="0"
           id="path6310"
           style="fill:#ffffff;fill-opacity:0.8;fill-rule:nonzero;stroke:#cccccc;stroke-width:1;stroke-linecap:butt;stroke-linejoin:miter;stroke-miterlimit:10;stroke-dasharray:none;stroke-opacity:0.8"
           d="m 346.56437,57.16875 h 76.66875 c 2.13334,0 3.2,1.066667 3.2,3.2 v 68.85312 c 0,2.13334 -1.06666,3.2 -3.2,3.2 h -76.66875 c -2.13333,0 -3.2,-1.06666 -3.2,-3.2 V 60.36875 c 0,-2.133333 1.06667,-3.2 3.2,-3.2 z" /><path
           inkscape:connector-curvature="0"
           id="path6312"
           style="fill:none;stroke:#1f77b4;stroke-width:1.5;stroke-linecap:square;stroke-linejoin:round;stroke-miterlimit:10;stroke-dasharray:none;stroke-opacity:1"
           d="m 345.51747,119.46563 h 16 16" /><g
           transform="translate(400.93472,113.86563)"
           id="g6314"><text
             id="text6318"
             style="font-variant:normal;font-weight:normal;font-size:16px;font-family:'DejaVu Sans';-inkscape-font-specification:DejaVuSans;writing-mode:lr-tb;fill:#000000;fill-opacity:1;fill-rule:nonzero;stroke:none"
             transform="scale(1,-1)"><tspan
               id="tspan6316"
               y="0"
               x="0">0</tspan></text>
</g><path
           inkscape:connector-curvature="0"
           id="path6320"
           style="fill:none;stroke:#ff7f0e;stroke-width:1.5;stroke-linecap:square;stroke-linejoin:round;stroke-miterlimit:10;stroke-dasharray:none;stroke-opacity:1"
           d="m 345.51747,95.98125 h 16 16" /><g
           transform="translate(400.93472,90.38125)"
           id="g6322"><text
             id="text6326"
             style="font-variant:normal;font-weight:normal;font-size:16px;font-family:'DejaVu Sans';-inkscape-font-specification:DejaVuSans;writing-mode:lr-tb;fill:#000000;fill-opacity:1;fill-rule:nonzero;stroke:none"
             transform="scale(1,-1)"><tspan
               id="tspan6324"
               sodipodi:role="line"
               y="0"
               x="0 10.176 15.264">0.1</tspan></text>
</g><path
           inkscape:connector-curvature="0"
           id="path6328"
           style="fill:none;stroke:#2ca02c;stroke-width:1.5;stroke-linecap:square;stroke-linejoin:round;stroke-miterlimit:10;stroke-dasharray:none;stroke-opacity:1"
           d="m 345.51747,72.496875 h 16 16" /><g
           transform="translate(400.93472,66.896875)"
           id="g6330"><text
             id="text6334"
             style="font-variant:normal;font-weight:normal;font-size:16px;font-family:'DejaVu Sans';-inkscape-font-specification:DejaVuSans;writing-mode:lr-tb;fill:#000000;fill-opacity:1;fill-rule:nonzero;stroke:none"
             transform="scale(1,-1)"><tspan
               id="tspan6332"
               sodipodi:role="line"
               y="0"
               x="0 10.176 15.264">0.2</tspan></text>
</g></g></g><g
       id="g6336"><g
         id="g6338"
         clip-path="url(#clipPath6342)"><path
           d="m 76.211307,61.236023 v 0.762445 l 18.953535,1.551864 18.953538,3.034588 18.95353,6.068901 18.95354,6.748717 18.95353,5.62564 18.95354,8.564401 18.95353,8.039751 18.95354,14.58842 18.95353,13.11133 18.95354,13.12851 18.95354,22.58519 18.95353,10.59925 18.95354,16.66551 18.95353,19.14926 18.95354,21.20799 18.95353,25.54479 18.95354,18.99683 18.95353,25.37207 v -153.17657 0 l -18.95353,-11.44224 -18.95354,1.37574 -18.95353,-8.24071 -18.95354,-4.82328 -18.95353,-0.60883 -18.95354,-6.86538 -18.95353,-8.54734 -18.95354,-9.24032 L 246.79312,90.815707 227.83959,85.766131 208.88605,79.79248 189.93252,77.412583 170.97898,72.444613 152.02545,68.574549 133.07191,66.152577 114.11838,62.936981 95.164842,61.98224 Z"
           style="fill:#ff0000;fill-opacity:0.25;fill-rule:nonzero;stroke:#ff0000;stroke-width:1;stroke-linecap:butt;stroke-linejoin:round;stroke-miterlimit:10;stroke-dasharray:none;stroke-opacity:0.25"
           id="path6344"
           inkscape:connector-curvature="0" /></g></g><g
       id="g6346"><path
         d="m 434.43312,61.189067 h 3.5"
         style="fill:#000000;fill-opacity:1;fill-rule:nonzero;stroke:#000000;stroke-width:0.80000001;stroke-linecap:butt;stroke-linejoin:round;stroke-miterlimit:10;stroke-dasharray:none;stroke-opacity:1"
         id="path6348"
         inkscape:connector-curvature="0" /><g
         id="g6350"
         transform="translate(441.43312,55.110942)"><text
           transform="scale(1,-1)"
           style="font-variant:normal;font-weight:normal;font-size:16px;font-family:'DejaVu Sans';-inkscape-font-specification:DejaVuSans;writing-mode:lr-tb;fill:#ff0000;fill-opacity:1;fill-rule:nonzero;stroke:none"
           id="text6354"><tspan
             x="0"
             y="0"
             id="tspan6352">0</tspan></text>
</g><path
         d="m 434.43312,122.33057 h 3.5"
         style="fill:#000000;fill-opacity:1;fill-rule:nonzero;stroke:#000000;stroke-width:0.80000001;stroke-linecap:butt;stroke-linejoin:round;stroke-miterlimit:10;stroke-dasharray:none;stroke-opacity:1"
         id="path6356"
         inkscape:connector-curvature="0" /><g
         id="g6358"
         transform="translate(441.43312,116.25244)"><text
           transform="scale(1,-1)"
           style="font-variant:normal;font-weight:normal;font-size:16px;font-family:'DejaVu Sans';-inkscape-font-specification:DejaVuSans;writing-mode:lr-tb;fill:#ff0000;fill-opacity:1;fill-rule:nonzero;stroke:none"
           id="text6362"><tspan
             x="0"
             y="0"
             id="tspan6360">5</tspan></text>
</g><path
         d="m 434.43312,183.47206 h 3.5"
         style="fill:#000000;fill-opacity:1;fill-rule:nonzero;stroke:#000000;stroke-width:0.80000001;stroke-linecap:butt;stroke-linejoin:round;stroke-miterlimit:10;stroke-dasharray:none;stroke-opacity:1"
         id="path6364"
         inkscape:connector-curvature="0" /><g
         id="g6366"
         transform="translate(441.43312,177.39394)"><text
           transform="scale(1,-1)"
           style="font-variant:normal;font-weight:normal;font-size:16px;font-family:'DejaVu Sans';-inkscape-font-specification:DejaVuSans;writing-mode:lr-tb;fill:#ff0000;fill-opacity:1;fill-rule:nonzero;stroke:none"
           id="text6370"><tspan
             x="0 10.176"
             y="0"
             sodipodi:role="line"
             id="tspan6368">10</tspan></text>
</g><path
         d="m 434.43312,244.61356 h 3.5"
         style="fill:#000000;fill-opacity:1;fill-rule:nonzero;stroke:#000000;stroke-width:0.80000001;stroke-linecap:butt;stroke-linejoin:round;stroke-miterlimit:10;stroke-dasharray:none;stroke-opacity:1"
         id="path6372"
         inkscape:connector-curvature="0" /><g
         id="g6374"
         transform="translate(441.43312,238.53543)"><text
           transform="scale(1,-1)"
           style="font-variant:normal;font-weight:normal;font-size:16px;font-family:'DejaVu Sans';-inkscape-font-specification:DejaVuSans;writing-mode:lr-tb;fill:#ff0000;fill-opacity:1;fill-rule:nonzero;stroke:none"
           id="text6378"><tspan
             x="0 10.176"
             y="0"
             sodipodi:role="line"
             id="tspan6376">15</tspan></text>
</g><path
         d="m 434.43312,305.75506 h 3.5"
         style="fill:#000000;fill-opacity:1;fill-rule:nonzero;stroke:#000000;stroke-width:0.80000001;stroke-linecap:butt;stroke-linejoin:round;stroke-miterlimit:10;stroke-dasharray:none;stroke-opacity:1"
         id="path6380"
         inkscape:connector-curvature="0" /><g
         id="g6382"
         transform="translate(441.43312,299.67693)"><text
           transform="scale(1,-1)"
           style="font-variant:normal;font-weight:normal;font-size:16px;font-family:'DejaVu Sans';-inkscape-font-specification:DejaVuSans;writing-mode:lr-tb;fill:#ff0000;fill-opacity:1;fill-rule:nonzero;stroke:none"
           id="text6386"><tspan
             x="0 10.176"
             y="0"
             sodipodi:role="line"
             id="tspan6384">20</tspan></text>
</g><g
         id="g6388"
         transform="rotate(90,183.48094,294.48344)"><text
           transform="scale(1,-1)"
           style="font-variant:normal;font-weight:normal;font-size:16px;font-family:'DejaVu Sans';-inkscape-font-specification:DejaVuSans;writing-mode:lr-tb;fill:#ff0000;fill-opacity:1;fill-rule:nonzero;stroke:none"
           id="text6392"><tspan
             x="0 12.32 22.16 30.959999 40.751999 56.335999 66.496002 71.584 76.671997 85.963623 90.411629 105.99563 115.83562 120.92362 127.16363 135.49962"
             y="0"
             sodipodi:role="line"
             id="tspan6390">Decomp. Time (s)</tspan></text>
</g></g><g
       id="g6394"><g
         id="g6396"
         clip-path="url(#clipPath6400)"><path
           d="m 76.211307,61.617245 18.953535,1.149041 18.953538,1.994665 18.95353,4.642248 18.95354,4.585345 18.95353,4.747852 18.95354,6.766185 18.95353,5.209822 18.95354,10.281037 18.95353,9.08045 18.95354,11.66268 18.95354,15.91276 18.95353,9.57329 18.95354,11.76545 18.95353,9.87904 18.95354,13.01564 18.95353,16.89274 18.95354,8.81055 18.95353,18.40716"
           style="fill:none;stroke:#ff0000;stroke-width:1.5;stroke-linecap:butt;stroke-linejoin:round;stroke-miterlimit:10;stroke-dasharray:5.55, 2.4;stroke-dashoffset:0;stroke-opacity:1"
           id="path6402"
           inkscape:connector-curvature="0" /></g></g><g
       id="g6404"><path
         d="m 59.153125,49.16875 v 265.48"
         style="fill:none;stroke:#000000;stroke-width:0.80000001;stroke-linecap:square;stroke-linejoin:miter;stroke-miterlimit:10;stroke-dasharray:none;stroke-opacity:1"
         id="path6406"
         inkscape:connector-curvature="0" /><path
         d="m 434.43312,49.16875 v 265.48"
         style="fill:none;stroke:#000000;stroke-width:0.80000001;stroke-linecap:square;stroke-linejoin:miter;stroke-miterlimit:10;stroke-dasharray:none;stroke-opacity:1"
         id="path6408"
         inkscape:connector-curvature="0" /><path
         d="M 59.153125,49.16875 H 434.43312"
         style="fill:none;stroke:#000000;stroke-width:0.80000001;stroke-linecap:square;stroke-linejoin:miter;stroke-miterlimit:10;stroke-dasharray:none;stroke-opacity:1"
         id="path6410"
         inkscape:connector-curvature="0" /><path
         d="M 59.153125,314.64875 H 434.43312"
         style="fill:none;stroke:#000000;stroke-width:0.80000001;stroke-linecap:square;stroke-linejoin:miter;stroke-miterlimit:10;stroke-dasharray:none;stroke-opacity:1"
         id="path6412"
         inkscape:connector-curvature="0" /><g
         id="g6978"
         transform="matrix(0.7386169,0,0,0.7386169,125.99773,10.137816)"><path
           inkscape:connector-curvature="0"
           id="path6414"
           style="fill:#ffffff;fill-opacity:0.8;fill-rule:nonzero;stroke:#cccccc;stroke-width:1;stroke-linecap:butt;stroke-linejoin:miter;stroke-miterlimit:10;stroke-dasharray:none;stroke-opacity:0.8"
           d="m 165.84156,57.16875 h 161.90313 c 2.13333,0 3.2,1.066667 3.2,3.2 v 21.884375 c 0,2.133333 -1.06667,3.2 -3.2,3.2 H 165.84156 c -2.13333,0 -3.2,-1.066667 -3.2,-3.2 V 60.36875 c 0,-2.133333 1.06667,-3.2 3.2,-3.2 z" /><path
           inkscape:connector-curvature="0"
           id="path6416"
           style="fill:none;stroke:#ff0000;stroke-width:1.5;stroke-linecap:butt;stroke-linejoin:round;stroke-miterlimit:10;stroke-dasharray:5.55, 2.4;stroke-dashoffset:0;stroke-opacity:1"
           d="m 169.04156,72.496875 h 16 16" /><g
           transform="translate(213.84156,66.896875)"
           id="g6418"><text
             id="text6422"
             style="font-variant:normal;font-weight:normal;font-size:16px;font-family:'DejaVu Sans';-inkscape-font-specification:DejaVuSans;writing-mode:lr-tb;fill:#000000;fill-opacity:1;fill-rule:nonzero;stroke:none"
             transform="scale(1,-1)"><tspan
               id="tspan6420"
               sodipodi:role="line"
               x="0 10.16 20 28.799999 38.591999 54.175999 64.335999 69.424004 74.512001 80.783997 85.232002 100.816"
               y="0">decomp. time</tspan></text>
</g></g></g><text
       xml:space="preserve"
       style="font-style:normal;font-weight:normal;font-size:9.19999981px;line-height:1.25;font-family:sans-serif;letter-spacing:0px;word-spacing:0px;fill:#000000;fill-opacity:1;stroke:none;stroke-width:0.75"
       x="399.81802"
       y="-90.971397"
       id="text6997"
       transform="scale(1,-1)"><tspan
         sodipodi:role="line"
         id="tspan6995"
         x="399.81802"
         y="-90.971397"
         style="font-size:11px;stroke-width:0.75"><tspan
   style="font-style:italic"
   id="tspan7025">θ</tspan>=</tspan></text>
<text
       xml:space="preserve"
       style="font-style:normal;font-weight:normal;font-size:9.19999981px;line-height:1.25;font-family:sans-serif;letter-spacing:0px;word-spacing:0px;fill:#000000;fill-opacity:1;stroke:none;stroke-width:0.75"
       x="399.73071"
       y="-74.037155"
       id="text6997-3"
       transform="scale(1,-1)"><tspan
         sodipodi:role="line"
         id="tspan6995-6"
         x="399.73071"
         y="-74.037155"
         style="font-size:11px;stroke-width:0.75"><tspan
   style="font-style:italic"
   id="tspan7029">θ</tspan>=</tspan></text>
<text
       xml:space="preserve"
       style="font-style:normal;font-weight:normal;font-size:9.19999981px;line-height:1.25;font-family:sans-serif;letter-spacing:0px;word-spacing:0px;fill:#000000;fill-opacity:1;stroke:none;stroke-width:0.75"
       x="399.73068"
       y="-58.119392"
       id="text6997-7"
       transform="scale(1,-1)"><tspan
         sodipodi:role="line"
         id="tspan6995-5"
         x="399.73068"
         y="-58.119392"
         style="font-size:11px;stroke-width:0.75"><tspan
   style="font-style:italic"
   id="tspan7031">θ</tspan>=</tspan></text>
</g></svg>